<mxfile host="65bd71144e">
    <diagram id="uQtb4kDnB-4BG6wCOJv8" name="Page-1">
        <mxGraphModel dx="1879" dy="1152" grid="1" gridSize="10" guides="1" tooltips="1" connect="1" arrows="1" fold="1" page="1" pageScale="1" pageWidth="827" pageHeight="1169" math="0" shadow="0">
            <root>
                <mxCell id="0"/>
                <mxCell id="1" parent="0"/>
                <mxCell id="98" value="" style="swimlane;startSize=0;strokeWidth=2;" parent="1" vertex="1">
                    <mxGeometry y="580" width="340" height="220" as="geometry"/>
                </mxCell>
                <mxCell id="128" value="" style="sketch=0;points=[[0,0,0],[0.25,0,0],[0.5,0,0],[0.75,0,0],[1,0,0],[0,1,0],[0.25,1,0],[0.5,1,0],[0.75,1,0],[1,1,0],[0,0.25,0],[0,0.5,0],[0,0.75,0],[1,0.25,0],[1,0.5,0],[1,0.75,0]];points=[[0,0,0],[0.25,0,0],[0.5,0,0],[0.75,0,0],[1,0,0],[0,1,0],[0.25,1,0],[0.5,1,0],[0.75,1,0],[1,1,0],[0,0.25,0],[0,0.5,0],[0,0.75,0],[1,0.25,0],[1,0.5,0],[1,0.75,0]];outlineConnect=0;fontColor=#232F3E;gradientColor=#F34482;gradientDirection=north;fillColor=#BC1356;strokeColor=#ffffff;dashed=0;verticalLabelPosition=bottom;verticalAlign=top;align=center;html=1;fontSize=12;fontStyle=0;aspect=fixed;shape=mxgraph.aws4.resourceIcon;resIcon=mxgraph.aws4.cloudformation;" parent="98" vertex="1">
                    <mxGeometry width="80" height="80" as="geometry"/>
                </mxCell>
                <mxCell id="127" value="&lt;h2 class=&quot;awsui_header-text_1r9lg_5gt1n_553&quot; style=&quot;&quot;&gt;&lt;font style=&quot;font-size: 16px;&quot;&gt;twitch-vod-downloader-registry&lt;/font&gt;&lt;/h2&gt;" style="text;html=1;align=center;verticalAlign=middle;resizable=0;points=[];autosize=1;strokeColor=none;fillColor=none;fontSize=21;" parent="98" vertex="1">
                    <mxGeometry x="80" y="-20" width="260" height="100" as="geometry"/>
                </mxCell>
                <mxCell id="260" value="ECR repository" style="sketch=0;points=[[0,0,0],[0.25,0,0],[0.5,0,0],[0.75,0,0],[1,0,0],[0,1,0],[0.25,1,0],[0.5,1,0],[0.75,1,0],[1,1,0],[0,0.25,0],[0,0.5,0],[0,0.75,0],[1,0.25,0],[1,0.5,0],[1,0.75,0]];outlineConnect=0;fontColor=#232F3E;fillColor=#ED7100;strokeColor=#ffffff;dashed=0;verticalLabelPosition=bottom;verticalAlign=top;align=center;html=1;fontSize=12;fontStyle=0;aspect=fixed;shape=mxgraph.aws4.resourceIcon;resIcon=mxgraph.aws4.ecr;" vertex="1" parent="98">
                    <mxGeometry x="80" y="100" width="80" height="80" as="geometry"/>
                </mxCell>
                <mxCell id="201" value="" style="swimlane;startSize=0;strokeWidth=2;" parent="1" vertex="1">
                    <mxGeometry x="-640" y="840" width="1800" height="760" as="geometry"/>
                </mxCell>
                <mxCell id="202" value="" style="sketch=0;points=[[0,0,0],[0.25,0,0],[0.5,0,0],[0.75,0,0],[1,0,0],[0,1,0],[0.25,1,0],[0.5,1,0],[0.75,1,0],[1,1,0],[0,0.25,0],[0,0.5,0],[0,0.75,0],[1,0.25,0],[1,0.5,0],[1,0.75,0]];points=[[0,0,0],[0.25,0,0],[0.5,0,0],[0.75,0,0],[1,0,0],[0,1,0],[0.25,1,0],[0.5,1,0],[0.75,1,0],[1,1,0],[0,0.25,0],[0,0.5,0],[0,0.75,0],[1,0.25,0],[1,0.5,0],[1,0.75,0]];outlineConnect=0;fontColor=#232F3E;gradientColor=#F34482;gradientDirection=north;fillColor=#BC1356;strokeColor=#ffffff;dashed=0;verticalLabelPosition=bottom;verticalAlign=top;align=center;html=1;fontSize=12;fontStyle=0;aspect=fixed;shape=mxgraph.aws4.resourceIcon;resIcon=mxgraph.aws4.cloudformation;" parent="201" vertex="1">
                    <mxGeometry width="80" height="80" as="geometry"/>
                </mxCell>
                <mxCell id="204" value="&lt;h2 class=&quot;awsui_header-text_1r9lg_5gt1n_553&quot; style=&quot;&quot;&gt;&lt;font style=&quot;font-size: 18px;&quot;&gt;mc-network&lt;/font&gt;&lt;/h2&gt;" style="text;html=1;align=center;verticalAlign=middle;resizable=0;points=[];autosize=1;strokeColor=none;fillColor=none;fontSize=21;" parent="201" vertex="1">
                    <mxGeometry x="80" y="-20" width="120" height="100" as="geometry"/>
                </mxCell>
                <mxCell id="209" value="VPC" style="points=[[0,0],[0.25,0],[0.5,0],[0.75,0],[1,0],[1,0.25],[1,0.5],[1,0.75],[1,1],[0.75,1],[0.5,1],[0.25,1],[0,1],[0,0.75],[0,0.5],[0,0.25]];outlineConnect=0;gradientColor=none;html=1;whiteSpace=wrap;fontSize=12;fontStyle=0;container=1;pointerEvents=0;collapsible=0;recursiveResize=0;shape=mxgraph.aws4.group;grIcon=mxgraph.aws4.group_vpc2;strokeColor=#8C4FFF;fillColor=none;verticalAlign=top;align=left;spacingLeft=30;fontColor=#AAB7B8;dashed=0;" parent="201" vertex="1">
                    <mxGeometry x="1280" y="80" width="320" height="640" as="geometry"/>
                </mxCell>
                <mxCell id="210" value="Public Subnet A" style="points=[[0,0],[0.25,0],[0.5,0],[0.75,0],[1,0],[1,0.25],[1,0.5],[1,0.75],[1,1],[0.75,1],[0.5,1],[0.25,1],[0,1],[0,0.75],[0,0.5],[0,0.25]];outlineConnect=0;gradientColor=none;html=1;whiteSpace=wrap;fontSize=12;fontStyle=0;container=1;pointerEvents=0;collapsible=0;recursiveResize=0;shape=mxgraph.aws4.group;grIcon=mxgraph.aws4.group_security_group;grStroke=0;strokeColor=#7AA116;fillColor=#F2F6E8;verticalAlign=top;align=left;spacingLeft=30;fontColor=#248814;dashed=0;" parent="209" vertex="1">
                    <mxGeometry x="40" y="40" width="240" height="160" as="geometry"/>
                </mxCell>
                <mxCell id="303" value="&lt;font style=&quot;font-size: 9px;&quot;&gt;ECS Task - Retreive&lt;/font&gt;&lt;div&gt;&lt;font style=&quot;font-size: 9px;&quot;&gt;video manifest url&lt;/font&gt;&lt;/div&gt;" style="sketch=0;points=[[0,0,0],[0.25,0,0],[0.5,0,0],[0.75,0,0],[1,0,0],[0,1,0],[0.25,1,0],[0.5,1,0],[0.75,1,0],[1,1,0],[0,0.25,0],[0,0.5,0],[0,0.75,0],[1,0.25,0],[1,0.5,0],[1,0.75,0]];outlineConnect=0;fontColor=#232F3E;fillColor=#ED7100;strokeColor=#ffffff;dashed=0;verticalLabelPosition=bottom;verticalAlign=top;align=center;html=1;fontSize=12;fontStyle=0;aspect=fixed;shape=mxgraph.aws4.resourceIcon;resIcon=mxgraph.aws4.ecs;" vertex="1" parent="210">
                    <mxGeometry x="40" y="40" width="40" height="40" as="geometry"/>
                </mxCell>
                <mxCell id="306" value="&lt;font style=&quot;font-size: 9px;&quot;&gt;ECS Task - Download video&lt;/font&gt;" style="sketch=0;points=[[0,0,0],[0.25,0,0],[0.5,0,0],[0.75,0,0],[1,0,0],[0,1,0],[0.25,1,0],[0.5,1,0],[0.75,1,0],[1,1,0],[0,0.25,0],[0,0.5,0],[0,0.75,0],[1,0.25,0],[1,0.5,0],[1,0.75,0]];outlineConnect=0;fontColor=#232F3E;fillColor=#ED7100;strokeColor=#ffffff;dashed=0;verticalLabelPosition=top;verticalAlign=bottom;align=center;html=1;fontSize=12;fontStyle=0;aspect=fixed;shape=mxgraph.aws4.resourceIcon;resIcon=mxgraph.aws4.ecs;labelPosition=center;" vertex="1" parent="210">
                    <mxGeometry x="160" y="40" width="40" height="40" as="geometry"/>
                </mxCell>
                <mxCell id="307" value="Public Subnet B" style="points=[[0,0],[0.25,0],[0.5,0],[0.75,0],[1,0],[1,0.25],[1,0.5],[1,0.75],[1,1],[0.75,1],[0.5,1],[0.25,1],[0,1],[0,0.75],[0,0.5],[0,0.25]];outlineConnect=0;gradientColor=none;html=1;whiteSpace=wrap;fontSize=12;fontStyle=0;container=1;pointerEvents=0;collapsible=0;recursiveResize=0;shape=mxgraph.aws4.group;grIcon=mxgraph.aws4.group_security_group;grStroke=0;strokeColor=#7AA116;fillColor=#F2F6E8;verticalAlign=top;align=left;spacingLeft=30;fontColor=#248814;dashed=0;" vertex="1" parent="209">
                    <mxGeometry x="40" y="240.32999999999993" width="240" height="160" as="geometry"/>
                </mxCell>
                <mxCell id="341" style="edgeStyle=none;html=1;" edge="1" parent="307" source="308">
                    <mxGeometry relative="1" as="geometry">
                        <mxPoint x="100" y="-400.3299999999999" as="targetPoint"/>
                        <Array as="points">
                            <mxPoint x="100" y="59.67000000000007"/>
                        </Array>
                    </mxGeometry>
                </mxCell>
                <mxCell id="308" value="&lt;font style=&quot;font-size: 9px;&quot;&gt;ECS Task - Retreive&lt;/font&gt;&lt;div&gt;&lt;font style=&quot;font-size: 9px;&quot;&gt;video manifest url&lt;/font&gt;&lt;/div&gt;" style="sketch=0;points=[[0,0,0],[0.25,0,0],[0.5,0,0],[0.75,0,0],[1,0,0],[0,1,0],[0.25,1,0],[0.5,1,0],[0.75,1,0],[1,1,0],[0,0.25,0],[0,0.5,0],[0,0.75,0],[1,0.25,0],[1,0.5,0],[1,0.75,0]];outlineConnect=0;fontColor=#232F3E;fillColor=#ED7100;strokeColor=#ffffff;dashed=0;verticalLabelPosition=bottom;verticalAlign=top;align=center;html=1;fontSize=12;fontStyle=0;aspect=fixed;shape=mxgraph.aws4.resourceIcon;resIcon=mxgraph.aws4.ecs;" vertex="1" parent="307">
                    <mxGeometry x="40" y="40" width="40" height="40" as="geometry"/>
                </mxCell>
                <mxCell id="309" value="&lt;font style=&quot;font-size: 9px;&quot;&gt;ECS Task - Download&amp;nbsp;&lt;/font&gt;&lt;span style=&quot;color: rgb(63, 63, 63); font-size: 9px;&quot;&gt;video&lt;/span&gt;" style="sketch=0;points=[[0,0,0],[0.25,0,0],[0.5,0,0],[0.75,0,0],[1,0,0],[0,1,0],[0.25,1,0],[0.5,1,0],[0.75,1,0],[1,1,0],[0,0.25,0],[0,0.5,0],[0,0.75,0],[1,0.25,0],[1,0.5,0],[1,0.75,0]];outlineConnect=0;fontColor=#232F3E;fillColor=#ED7100;strokeColor=#ffffff;dashed=0;verticalLabelPosition=top;verticalAlign=bottom;align=center;html=1;fontSize=12;fontStyle=0;aspect=fixed;shape=mxgraph.aws4.resourceIcon;resIcon=mxgraph.aws4.ecs;labelPosition=center;" vertex="1" parent="307">
                    <mxGeometry x="160" y="40" width="40" height="40" as="geometry"/>
                </mxCell>
                <mxCell id="310" value="Public Subnet C" style="points=[[0,0],[0.25,0],[0.5,0],[0.75,0],[1,0],[1,0.25],[1,0.5],[1,0.75],[1,1],[0.75,1],[0.5,1],[0.25,1],[0,1],[0,0.75],[0,0.5],[0,0.25]];outlineConnect=0;gradientColor=none;html=1;whiteSpace=wrap;fontSize=12;fontStyle=0;container=1;pointerEvents=0;collapsible=0;recursiveResize=0;shape=mxgraph.aws4.group;grIcon=mxgraph.aws4.group_security_group;grStroke=0;strokeColor=#7AA116;fillColor=#F2F6E8;verticalAlign=top;align=left;spacingLeft=30;fontColor=#248814;dashed=0;" vertex="1" parent="209">
                    <mxGeometry x="40" y="440" width="240" height="160" as="geometry"/>
                </mxCell>
                <mxCell id="342" style="edgeStyle=none;html=1;" edge="1" parent="310" source="311">
                    <mxGeometry relative="1" as="geometry">
                        <mxPoint x="100" y="-600" as="targetPoint"/>
                        <Array as="points">
                            <mxPoint x="100" y="60"/>
                        </Array>
                    </mxGeometry>
                </mxCell>
                <mxCell id="311" value="&lt;font style=&quot;font-size: 9px;&quot;&gt;ECS Task - Retreive&lt;/font&gt;&lt;div&gt;&lt;font style=&quot;font-size: 9px;&quot;&gt;video manifest url&lt;/font&gt;&lt;/div&gt;" style="sketch=0;points=[[0,0,0],[0.25,0,0],[0.5,0,0],[0.75,0,0],[1,0,0],[0,1,0],[0.25,1,0],[0.5,1,0],[0.75,1,0],[1,1,0],[0,0.25,0],[0,0.5,0],[0,0.75,0],[1,0.25,0],[1,0.5,0],[1,0.75,0]];outlineConnect=0;fontColor=#232F3E;fillColor=#ED7100;strokeColor=#ffffff;dashed=0;verticalLabelPosition=bottom;verticalAlign=top;align=center;html=1;fontSize=12;fontStyle=0;aspect=fixed;shape=mxgraph.aws4.resourceIcon;resIcon=mxgraph.aws4.ecs;" vertex="1" parent="310">
                    <mxGeometry x="40" y="40" width="40" height="40" as="geometry"/>
                </mxCell>
                <mxCell id="327" style="edgeStyle=none;html=1;" edge="1" parent="310" source="312">
                    <mxGeometry relative="1" as="geometry">
                        <mxPoint x="360" y="-120" as="targetPoint"/>
                        <Array as="points">
                            <mxPoint x="260" y="60"/>
                            <mxPoint x="260" y="-120"/>
                        </Array>
                    </mxGeometry>
                </mxCell>
                <mxCell id="312" value="&lt;font style=&quot;font-size: 9px;&quot;&gt;ECS Task - Download&amp;nbsp;&lt;/font&gt;&lt;span style=&quot;color: rgb(63, 63, 63); font-size: 9px;&quot;&gt;video&lt;/span&gt;" style="sketch=0;points=[[0,0,0],[0.25,0,0],[0.5,0,0],[0.75,0,0],[1,0,0],[0,1,0],[0.25,1,0],[0.5,1,0],[0.75,1,0],[1,1,0],[0,0.25,0],[0,0.5,0],[0,0.75,0],[1,0.25,0],[1,0.5,0],[1,0.75,0]];outlineConnect=0;fontColor=#232F3E;fillColor=#ED7100;strokeColor=#ffffff;dashed=0;verticalLabelPosition=top;verticalAlign=bottom;align=center;html=1;fontSize=12;fontStyle=0;aspect=fixed;shape=mxgraph.aws4.resourceIcon;resIcon=mxgraph.aws4.ecs;labelPosition=center;" vertex="1" parent="310">
                    <mxGeometry x="160" y="40" width="40" height="40" as="geometry"/>
                </mxCell>
                <mxCell id="267" value="domain record set" style="sketch=0;points=[[0,0,0],[0.25,0,0],[0.5,0,0],[0.75,0,0],[1,0,0],[0,1,0],[0.25,1,0],[0.5,1,0],[0.75,1,0],[1,1,0],[0,0.25,0],[0,0.5,0],[0,0.75,0],[1,0.25,0],[1,0.5,0],[1,0.75,0]];outlineConnect=0;fontColor=#232F3E;gradientColor=#945DF2;gradientDirection=north;fillColor=#5A30B5;strokeColor=#ffffff;dashed=0;verticalLabelPosition=bottom;verticalAlign=top;align=center;html=1;fontSize=12;fontStyle=0;aspect=fixed;shape=mxgraph.aws4.resourceIcon;resIcon=mxgraph.aws4.route_53;" vertex="1" parent="201">
                    <mxGeometry x="600" y="80" width="80.67" height="80.67" as="geometry"/>
                </mxCell>
                <mxCell id="265" style="edgeStyle=none;html=1;exitX=0;exitY=0.75;exitDx=0;exitDy=0;exitPerimeter=0;entryX=1;entryY=0.75;entryDx=0;entryDy=0;entryPerimeter=0;" edge="1" parent="201" source="267" target="271">
                    <mxGeometry relative="1" as="geometry">
                        <mxPoint x="200" y="140.7524999999996" as="targetPoint"/>
                    </mxGeometry>
                </mxCell>
                <mxCell id="266" value="https://{branch}.abc123.amplifyapp.com" style="edgeLabel;html=1;align=center;verticalAlign=middle;resizable=0;points=[];fontSize=11;" vertex="1" connectable="0" parent="265">
                    <mxGeometry x="0.0595" y="-1" relative="1" as="geometry">
                        <mxPoint x="8" as="offset"/>
                    </mxGeometry>
                </mxCell>
                <mxCell id="268" style="edgeStyle=none;html=1;exitX=1;exitY=0.25;exitDx=0;exitDy=0;exitPerimeter=0;entryX=0;entryY=0.25;entryDx=0;entryDy=0;entryPerimeter=0;" edge="1" parent="201" source="271" target="267">
                    <mxGeometry relative="1" as="geometry">
                        <mxPoint x="200" y="100.91750000000002" as="sourcePoint"/>
                        <mxPoint y="98.67000000000007" as="targetPoint"/>
                    </mxGeometry>
                </mxCell>
                <mxCell id="269" value="vod.example.co.uk" style="edgeLabel;html=1;align=center;verticalAlign=middle;resizable=0;points=[];fontSize=11;" vertex="1" connectable="0" parent="268">
                    <mxGeometry x="-0.1185" y="2" relative="1" as="geometry">
                        <mxPoint x="17" as="offset"/>
                    </mxGeometry>
                </mxCell>
                <mxCell id="270" style="edgeStyle=none;html=1;entryX=0.5;entryY=0;entryDx=0;entryDy=0;fontSize=11;" edge="1" parent="201" source="271" target="274">
                    <mxGeometry relative="1" as="geometry"/>
                </mxCell>
                <mxCell id="272" style="edgeStyle=none;html=1;fontSize=11;exitX=0.25;exitY=1;exitDx=0;exitDy=0;entryX=0.25;entryY=0;entryDx=0;entryDy=0;entryPerimeter=0;" edge="1" parent="201" source="274" target="278">
                    <mxGeometry relative="1" as="geometry">
                        <mxPoint x="280" y="710.6700000000001" as="targetPoint"/>
                    </mxGeometry>
                </mxCell>
                <mxCell id="273" value="&lt;font style=&quot;font-size: 9px;&quot;&gt;listStreamers&lt;/font&gt;" style="edgeLabel;html=1;align=center;verticalAlign=middle;resizable=0;points=[];" vertex="1" connectable="0" parent="272">
                    <mxGeometry x="0.2333" y="-1" relative="1" as="geometry">
                        <mxPoint x="1" y="-34" as="offset"/>
                    </mxGeometry>
                </mxCell>
                <mxCell id="286" style="edgeStyle=none;html=1;entryX=1;entryY=0.25;entryDx=0;entryDy=0;entryPerimeter=0;exitX=0;exitY=0.25;exitDx=0;exitDy=0;exitPerimeter=0;" edge="1" parent="201" source="278" target="285">
                    <mxGeometry relative="1" as="geometry"/>
                </mxCell>
                <mxCell id="288" value="&lt;font style=&quot;font-size: 9px;&quot;&gt;ListStreamers&lt;/font&gt;" style="edgeLabel;html=1;align=center;verticalAlign=middle;resizable=0;points=[];" vertex="1" connectable="0" parent="286">
                    <mxGeometry x="0.0294" y="1" relative="1" as="geometry">
                        <mxPoint x="2" as="offset"/>
                    </mxGeometry>
                </mxCell>
                <mxCell id="281" style="edgeStyle=none;html=1;entryX=0.5;entryY=0;entryDx=0;entryDy=0;entryPerimeter=0;" edge="1" parent="201" source="165" target="271">
                    <mxGeometry relative="1" as="geometry"/>
                </mxCell>
                <mxCell id="283" style="edgeStyle=none;html=1;exitX=0.75;exitY=1;exitDx=0;exitDy=0;entryX=0.75;entryY=0;entryDx=0;entryDy=0;entryPerimeter=0;" edge="1" parent="201" source="274" target="278">
                    <mxGeometry relative="1" as="geometry"/>
                </mxCell>
                <mxCell id="284" value="&lt;font style=&quot;font-size: 9px;&quot;&gt;listStreamerVideos&lt;/font&gt;" style="edgeLabel;html=1;align=center;verticalAlign=middle;resizable=0;points=[];" vertex="1" connectable="0" parent="283">
                    <mxGeometry x="0.3952" y="1" relative="1" as="geometry">
                        <mxPoint as="offset"/>
                    </mxGeometry>
                </mxCell>
                <mxCell id="287" style="edgeStyle=none;html=1;" edge="1" parent="201">
                    <mxGeometry relative="1" as="geometry">
                        <mxPoint x="320" y="500" as="sourcePoint"/>
                        <mxPoint x="440" y="500" as="targetPoint"/>
                    </mxGeometry>
                </mxCell>
                <mxCell id="289" value="&lt;font style=&quot;font-size: 9px;&quot;&gt;ListStreamerVideos&lt;/font&gt;" style="edgeLabel;html=1;align=center;verticalAlign=middle;resizable=0;points=[];" vertex="1" connectable="0" parent="287">
                    <mxGeometry x="0.0751" y="-1" relative="1" as="geometry">
                        <mxPoint x="-5" as="offset"/>
                    </mxGeometry>
                </mxCell>
                <mxCell id="290" value="" style="edgeStyle=none;html=1;" edge="1" parent="201" source="165" target="271">
                    <mxGeometry relative="1" as="geometry"/>
                </mxCell>
                <mxCell id="291" value="&lt;span style=&quot;color: rgb(63, 63, 63); font-size: 14px; background-color: rgb(251, 251, 251);&quot;&gt;vod.example.co.uk&lt;/span&gt;" style="edgeLabel;html=1;align=center;verticalAlign=middle;resizable=0;points=[];" vertex="1" connectable="0" parent="290">
                    <mxGeometry x="-0.0977" y="-2" relative="1" as="geometry">
                        <mxPoint x="2" y="-32" as="offset"/>
                    </mxGeometry>
                </mxCell>
                <mxCell id="165" value="Actor" style="shape=umlActor;verticalLabelPosition=top;verticalAlign=bottom;html=1;outlineConnect=0;labelPosition=center;align=center;" parent="201" vertex="1">
                    <mxGeometry x="265" y="-140" width="30" height="60" as="geometry"/>
                </mxCell>
                <mxCell id="271" value="AmplifyApp" style="sketch=0;points=[[0,0,0],[0.25,0,0],[0.5,0,0],[0.75,0,0],[1,0,0],[0,1,0],[0.25,1,0],[0.5,1,0],[0.75,1,0],[1,1,0],[0,0.25,0],[0,0.5,0],[0,0.75,0],[1,0.25,0],[1,0.5,0],[1,0.75,0]];outlineConnect=0;fontColor=#232F3E;gradientColor=#F54749;gradientDirection=north;fillColor=#C7131F;strokeColor=#ffffff;dashed=0;verticalLabelPosition=bottom;verticalAlign=top;align=center;html=1;fontSize=12;fontStyle=0;aspect=fixed;shape=mxgraph.aws4.resourceIcon;resIcon=mxgraph.aws4.amplify;" vertex="1" parent="201">
                    <mxGeometry x="240" y="80" width="80" height="80" as="geometry"/>
                </mxCell>
                <mxCell id="274" value="NextJS React Website" style="shape=image;html=1;verticalAlign=top;verticalLabelPosition=bottom;labelBackgroundColor=#ffffff;imageAspect=0;aspect=fixed;image=https://cdn3.iconfinder.com/data/icons/brands-pack/240/react-128.png;strokeWidth=2;fontSize=11;" vertex="1" parent="201">
                    <mxGeometry x="240" y="239.67000000000007" width="80" height="80" as="geometry"/>
                </mxCell>
                <mxCell id="278" value="GraphQLAPI" style="sketch=0;points=[[0,0,0],[0.25,0,0],[0.5,0,0],[0.75,0,0],[1,0,0],[0,1,0],[0.25,1,0],[0.5,1,0],[0.75,1,0],[1,1,0],[0,0.25,0],[0,0.5,0],[0,0.75,0],[1,0.25,0],[1,0.5,0],[1,0.75,0]];outlineConnect=0;fontColor=#232F3E;gradientColor=#FF4F8B;gradientDirection=north;fillColor=#BC1356;strokeColor=#ffffff;dashed=0;verticalLabelPosition=bottom;verticalAlign=top;align=center;html=1;fontSize=12;fontStyle=0;aspect=fixed;shape=mxgraph.aws4.resourceIcon;resIcon=mxgraph.aws4.appsync;" vertex="1" parent="201">
                    <mxGeometry x="240" y="440" width="80" height="80" as="geometry"/>
                </mxCell>
                <mxCell id="285" value="" style="sketch=0;points=[[0,0,0],[0.25,0,0],[0.5,0,0],[0.75,0,0],[1,0,0],[0,1,0],[0.25,1,0],[0.5,1,0],[0.75,1,0],[1,1,0],[0,0.25,0],[0,0.5,0],[0,0.75,0],[1,0.25,0],[1,0.5,0],[1,0.75,0]];outlineConnect=0;fontColor=#232F3E;fillColor=#C925D1;strokeColor=#ffffff;dashed=0;verticalLabelPosition=bottom;verticalAlign=top;align=center;html=1;fontSize=12;fontStyle=0;aspect=fixed;shape=mxgraph.aws4.resourceIcon;resIcon=mxgraph.aws4.dynamodb;" vertex="1" parent="201">
                    <mxGeometry x="440" y="440" width="80" height="80" as="geometry"/>
                </mxCell>
                <mxCell id="293" value="AWS Step Functions workflow" style="points=[[0,0],[0.25,0],[0.5,0],[0.75,0],[1,0],[1,0.25],[1,0.5],[1,0.75],[1,1],[0.75,1],[0.5,1],[0.25,1],[0,1],[0,0.75],[0,0.5],[0,0.25]];outlineConnect=0;gradientColor=none;html=1;whiteSpace=wrap;fontSize=12;fontStyle=0;container=1;pointerEvents=0;collapsible=0;recursiveResize=0;shape=mxgraph.aws4.group;grIcon=mxgraph.aws4.group_aws_step_functions_workflow;strokeColor=#CD2264;fillColor=none;verticalAlign=top;align=left;spacingLeft=30;fontColor=#CD2264;dashed=0;" vertex="1" parent="201">
                    <mxGeometry x="720" y="80" width="400" height="640" as="geometry"/>
                </mxCell>
                <mxCell id="302" style="edgeStyle=none;html=1;entryX=0.5;entryY=0;entryDx=0;entryDy=0;" edge="1" parent="293" source="296" target="299">
                    <mxGeometry relative="1" as="geometry"/>
                </mxCell>
                <mxCell id="296" value="List Streamers" style="rounded=0;whiteSpace=wrap;html=1;" vertex="1" parent="293">
                    <mxGeometry x="160" y="40.33999999999999" width="80" height="40.33" as="geometry"/>
                </mxCell>
                <mxCell id="305" style="edgeStyle=none;html=1;entryX=0.5;entryY=0;entryDx=0;entryDy=0;" edge="1" parent="293" source="299" target="304">
                    <mxGeometry relative="1" as="geometry"/>
                </mxCell>
                <mxCell id="299" value="check for a new video" style="rounded=0;whiteSpace=wrap;html=1;" vertex="1" parent="293">
                    <mxGeometry x="160" y="139.83000000000015" width="80" height="40.33" as="geometry"/>
                </mxCell>
                <mxCell id="321" style="edgeStyle=none;html=1;entryX=0.5;entryY=0;entryDx=0;entryDy=0;" edge="1" parent="293" source="304" target="313">
                    <mxGeometry relative="1" as="geometry"/>
                </mxCell>
                <mxCell id="304" value="Retrieve video manifest url" style="rounded=0;whiteSpace=wrap;html=1;" vertex="1" parent="293">
                    <mxGeometry x="160" y="240.00000000000023" width="80" height="40.33" as="geometry"/>
                </mxCell>
                <mxCell id="331" style="edgeStyle=none;html=1;entryX=0.5;entryY=0;entryDx=0;entryDy=0;" edge="1" parent="293" source="313" target="330">
                    <mxGeometry relative="1" as="geometry"/>
                </mxCell>
                <mxCell id="313" value="Download video" style="rounded=0;whiteSpace=wrap;html=1;" vertex="1" parent="293">
                    <mxGeometry x="160" y="340.0000000000002" width="80" height="40.33" as="geometry"/>
                </mxCell>
                <mxCell id="330" value="Update video state" style="rounded=0;whiteSpace=wrap;html=1;" vertex="1" parent="293">
                    <mxGeometry x="160" y="440.0000000000002" width="80" height="40.33" as="geometry"/>
                </mxCell>
                <mxCell id="294" style="edgeStyle=none;html=1;entryX=0.5;entryY=0;entryDx=0;entryDy=0;" edge="1" parent="201" source="292" target="293">
                    <mxGeometry relative="1" as="geometry">
                        <Array as="points">
                            <mxPoint x="1200" y="40"/>
                            <mxPoint x="920" y="40"/>
                        </Array>
                    </mxGeometry>
                </mxCell>
                <mxCell id="295" value="Start Execution" style="edgeLabel;html=1;align=center;verticalAlign=middle;resizable=0;points=[];" vertex="1" connectable="0" parent="294">
                    <mxGeometry x="0.0138" y="-2" relative="1" as="geometry">
                        <mxPoint x="-3" y="2" as="offset"/>
                    </mxGeometry>
                </mxCell>
                <mxCell id="292" value="1 minute cron" style="sketch=0;points=[[0,0,0],[0.25,0,0],[0.5,0,0],[0.75,0,0],[1,0,0],[0,1,0],[0.25,1,0],[0.5,1,0],[0.75,1,0],[1,1,0],[0,0.25,0],[0,0.5,0],[0,0.75,0],[1,0.25,0],[1,0.5,0],[1,0.75,0]];outlineConnect=0;fontColor=#232F3E;fillColor=#E7157B;strokeColor=#ffffff;dashed=0;verticalLabelPosition=bottom;verticalAlign=top;align=center;html=1;fontSize=12;fontStyle=0;aspect=fixed;shape=mxgraph.aws4.resourceIcon;resIcon=mxgraph.aws4.eventbridge;" vertex="1" parent="201">
                    <mxGeometry x="1160" y="80" width="80" height="80" as="geometry"/>
                </mxCell>
                <mxCell id="297" style="edgeStyle=none;html=1;entryX=0.5;entryY=0;entryDx=0;entryDy=0;entryPerimeter=0;" edge="1" parent="201" source="296" target="285">
                    <mxGeometry relative="1" as="geometry">
                        <Array as="points">
                            <mxPoint x="700" y="141"/>
                            <mxPoint x="700" y="400"/>
                            <mxPoint x="480" y="400"/>
                        </Array>
                    </mxGeometry>
                </mxCell>
                <mxCell id="298" value="List Streamers Query" style="edgeLabel;html=1;align=center;verticalAlign=middle;resizable=0;points=[];" vertex="1" connectable="0" parent="297">
                    <mxGeometry x="0.6325" y="-1" relative="1" as="geometry">
                        <mxPoint as="offset"/>
                    </mxGeometry>
                </mxCell>
                <mxCell id="300" value="list videos" style="sketch=0;points=[[0,0,0],[0.25,0,0],[0.5,0,0],[0.75,0,0],[1,0,0],[0,1,0],[0.25,1,0],[0.5,1,0],[0.75,1,0],[1,1,0],[0,0.25,0],[0,0.5,0],[0,0.75,0],[1,0.25,0],[1,0.5,0],[1,0.75,0]];outlineConnect=0;fontColor=#232F3E;fillColor=#ED7100;strokeColor=#ffffff;dashed=0;verticalLabelPosition=bottom;verticalAlign=top;align=center;html=1;fontSize=12;fontStyle=0;aspect=fixed;shape=mxgraph.aws4.resourceIcon;resIcon=mxgraph.aws4.lambda;" vertex="1" parent="201">
                    <mxGeometry x="1160" y="200" width="80" height="80" as="geometry"/>
                </mxCell>
                <mxCell id="314" style="edgeStyle=none;html=1;entryX=0;entryY=0.5;entryDx=0;entryDy=0;entryPerimeter=0;" edge="1" parent="201" source="299" target="300">
                    <mxGeometry relative="1" as="geometry"/>
                </mxCell>
                <mxCell id="315" style="edgeStyle=none;html=1;entryX=0;entryY=0.5;entryDx=0;entryDy=0;entryPerimeter=0;" edge="1" parent="201" source="304" target="308">
                    <mxGeometry relative="1" as="geometry">
                        <Array as="points">
                            <mxPoint x="1200" y="340"/>
                            <mxPoint x="1200" y="380"/>
                        </Array>
                    </mxGeometry>
                </mxCell>
                <mxCell id="316" style="edgeStyle=none;html=1;entryX=0;entryY=0.5;entryDx=0;entryDy=0;entryPerimeter=0;" edge="1" parent="201" source="304" target="303">
                    <mxGeometry relative="1" as="geometry">
                        <Array as="points">
                            <mxPoint x="1200" y="340"/>
                            <mxPoint x="1200" y="380"/>
                            <mxPoint x="1300" y="380"/>
                            <mxPoint x="1300" y="180"/>
                        </Array>
                    </mxGeometry>
                </mxCell>
                <mxCell id="317" style="edgeStyle=none;html=1;entryX=0.5;entryY=1;entryDx=0;entryDy=0;entryPerimeter=0;" edge="1" parent="201" source="313" target="312">
                    <mxGeometry relative="1" as="geometry">
                        <Array as="points">
                            <mxPoint x="1240" y="440"/>
                            <mxPoint x="1240" y="700"/>
                            <mxPoint x="1500" y="700"/>
                        </Array>
                    </mxGeometry>
                </mxCell>
                <mxCell id="318" style="edgeStyle=none;html=1;entryX=0;entryY=0.5;entryDx=0;entryDy=0;entryPerimeter=0;" edge="1" parent="201" source="304" target="311">
                    <mxGeometry relative="1" as="geometry">
                        <Array as="points">
                            <mxPoint x="1200" y="340"/>
                            <mxPoint x="1200" y="380"/>
                            <mxPoint x="1300" y="380"/>
                            <mxPoint x="1300" y="580"/>
                        </Array>
                    </mxGeometry>
                </mxCell>
                <mxCell id="319" style="edgeStyle=none;html=1;entryX=0.5;entryY=1;entryDx=0;entryDy=0;entryPerimeter=0;" edge="1" parent="201" source="313" target="309">
                    <mxGeometry relative="1" as="geometry">
                        <Array as="points">
                            <mxPoint x="1240" y="440"/>
                            <mxPoint x="1240" y="500"/>
                            <mxPoint x="1290" y="500"/>
                            <mxPoint x="1300" y="490"/>
                            <mxPoint x="1310" y="500"/>
                            <mxPoint x="1500" y="500"/>
                        </Array>
                    </mxGeometry>
                </mxCell>
                <mxCell id="320" style="edgeStyle=none;html=1;entryX=0.5;entryY=1;entryDx=0;entryDy=0;entryPerimeter=0;" edge="1" parent="201" source="313" target="306">
                    <mxGeometry relative="1" as="geometry">
                        <Array as="points">
                            <mxPoint x="1240" y="440"/>
                            <mxPoint x="1240" y="390"/>
                            <mxPoint x="1230" y="380"/>
                            <mxPoint x="1240" y="370"/>
                            <mxPoint x="1240" y="300"/>
                            <mxPoint x="1500" y="300"/>
                        </Array>
                    </mxGeometry>
                </mxCell>
                <mxCell id="322" value="" style="sketch=0;points=[[0,0,0],[0.25,0,0],[0.5,0,0],[0.75,0,0],[1,0,0],[0,1,0],[0.25,1,0],[0.5,1,0],[0.75,1,0],[1,1,0],[0,0.25,0],[0,0.5,0],[0,0.75,0],[1,0.25,0],[1,0.5,0],[1,0.75,0]];outlineConnect=0;fontColor=#232F3E;fillColor=#7AA116;strokeColor=#ffffff;dashed=0;verticalLabelPosition=bottom;verticalAlign=top;align=center;html=1;fontSize=12;fontStyle=0;aspect=fixed;shape=mxgraph.aws4.resourceIcon;resIcon=mxgraph.aws4.s3;" vertex="1" parent="201">
                    <mxGeometry x="1680" y="360" width="80" height="80" as="geometry"/>
                </mxCell>
                <mxCell id="324" style="edgeStyle=none;html=1;entryX=0;entryY=0.5;entryDx=0;entryDy=0;entryPerimeter=0;" edge="1" parent="201" source="306" target="322">
                    <mxGeometry relative="1" as="geometry">
                        <Array as="points">
                            <mxPoint x="1580" y="180"/>
                            <mxPoint x="1580" y="400"/>
                        </Array>
                    </mxGeometry>
                </mxCell>
                <mxCell id="328" value="store&lt;div&gt;video&lt;/div&gt;&lt;div&gt;content&lt;/div&gt;" style="text;html=1;align=center;verticalAlign=middle;resizable=0;points=[];autosize=1;strokeColor=none;fillColor=none;" vertex="1" parent="201">
                    <mxGeometry x="1610" y="340" width="60" height="60" as="geometry"/>
                </mxCell>
                <mxCell id="326" style="edgeStyle=none;html=1;entryX=0;entryY=0.5;entryDx=0;entryDy=0;entryPerimeter=0;" edge="1" parent="201" source="309" target="322">
                    <mxGeometry relative="1" as="geometry">
                        <mxPoint x="1640" y="400" as="targetPoint"/>
                        <Array as="points">
                            <mxPoint x="1580" y="380"/>
                            <mxPoint x="1580" y="400"/>
                        </Array>
                    </mxGeometry>
                </mxCell>
                <mxCell id="332" style="edgeStyle=none;html=1;entryX=1;entryY=0.5;entryDx=0;entryDy=0;entryPerimeter=0;" edge="1" parent="201" source="330" target="285">
                    <mxGeometry relative="1" as="geometry">
                        <Array as="points">
                            <mxPoint x="700" y="540"/>
                            <mxPoint x="700" y="480"/>
                        </Array>
                    </mxGeometry>
                </mxCell>
                <mxCell id="333" value="Update video to complete" style="edgeLabel;html=1;align=center;verticalAlign=middle;resizable=0;points=[];" vertex="1" connectable="0" parent="332">
                    <mxGeometry x="0.6" y="-1" relative="1" as="geometry">
                        <mxPoint x="16" y="1" as="offset"/>
                    </mxGeometry>
                </mxCell>
                <mxCell id="334" value="Lambda authorizer to&lt;div&gt;validate Twitch OAUTH 2.0&lt;/div&gt;&lt;div&gt;access tokens&lt;/div&gt;" style="sketch=0;points=[[0,0,0],[0.25,0,0],[0.5,0,0],[0.75,0,0],[1,0,0],[0,1,0],[0.25,1,0],[0.5,1,0],[0.75,1,0],[1,1,0],[0,0.25,0],[0,0.5,0],[0,0.75,0],[1,0.25,0],[1,0.5,0],[1,0.75,0]];outlineConnect=0;fontColor=#232F3E;fillColor=#ED7100;strokeColor=#ffffff;dashed=0;verticalLabelPosition=bottom;verticalAlign=top;align=center;html=1;fontSize=12;fontStyle=0;aspect=fixed;shape=mxgraph.aws4.resourceIcon;resIcon=mxgraph.aws4.lambda;" vertex="1" parent="201">
                    <mxGeometry x="80" y="440" width="80" height="80" as="geometry"/>
                </mxCell>
                <mxCell id="335" style="edgeStyle=none;html=1;entryX=1;entryY=0.25;entryDx=0;entryDy=0;entryPerimeter=0;exitX=0;exitY=0.25;exitDx=0;exitDy=0;exitPerimeter=0;" edge="1" parent="201" source="278" target="334">
                    <mxGeometry relative="1" as="geometry"/>
                </mxCell>
                <mxCell id="336" style="edgeStyle=none;html=1;entryX=0;entryY=0.75;entryDx=0;entryDy=0;entryPerimeter=0;exitX=1;exitY=0.75;exitDx=0;exitDy=0;exitPerimeter=0;" edge="1" parent="201" source="334" target="278">
                    <mxGeometry relative="1" as="geometry"/>
                </mxCell>
                <mxCell id="337" value="Twitch API" style="shape=image;verticalLabelPosition=top;labelBackgroundColor=default;verticalAlign=bottom;aspect=fixed;imageAspect=0;image=data:image/png,iVBORw0KGgoAAAANSUhEUgAAAlgAAAJYCAMAAACJuGjuAAAA+VBMVEX////x7/a6rdOPebd3XKhvUqJyVqR0WKV1WaZ5Xqno4/CSfLlpS59lRpyAZq329fmYg7zLwN35+PuWgbvh2+y/stZlR5z6+vzm4e/BtddnSJ2Xgrz7+/yZhL3Fudqahr78+/2ciL/q5vHIvdyei8Hr5/J6X6rJvtzs6fN8Yar9/P2ikMN9Y6zMwt6Nd7aNdrW4qtH49/rt6vTu6/TPxuD9/f6jkcTOxN+lksXw7fXSyeKol8eBaK7Uy+P+/v6vnsy0pc+dicDz8feCaa6Uf7qEa6+Vf7pxVKOrmsny7/aKcrRtUKKHb7JzVqWFbbD+/f7c1eny8Pfz8PdZOEv6AAAKhElEQVR4Ae3dhV6by77H4SkEzxCkiq1QwWV1UbQldRfouf97Odv3cslm/pBJn+8lJM9nftH3TZIkSZIkSZIkSZIkSZIkSZIkSZIkSZIkSZIk/eWuDQw2hrpoeCS20cZYSBq8VFfjE838TaTJy3TVmsoCq3zTAeeVwJqZzeUTWNdHcvkE1o2buXgC61bEEgqs26O5fALrzlwunsC6NZ/LJ7BuN7LAqmMJBdbCYi6fwBqPWEKBtRSwhAJr4bsssKKWUGBZQlUAq72cBVb57o5lgVW+e5YQrLglFFiWUBXAutfMAqt47ftZYJXvwUoWWOVbtYRgxS2hwLKEqgDW6lwWWJZQdcBaW88CK+oaMwLLEqoCWA8sIViWUDGwLKEqgGUJwbKEqgCWJQTLEqpGWJYQLEuoamBZQrAsoaqBtbGZBVb51raywCrf9kWXcH1nVz3R8BXCCljC72ceqhdqzV4hrIAlHEjqiTamegnWdrNPYKndS7DamxkssOKXECywIpYQLLAClhAssAL+TwgWWAFLCBZYAZ+OggVWwBKCBVbAEoIFVsB7QrDACljCAFgCa7oJFljRSwgWWAFLCBZYAUsIFlgBSwgWWAFLCBZYAUsIFlgB/6wHC6yA344GwBJY202wwAr5xUx5WALrhy2wwIpcQrDAClhCsMAKWEKwwApYQrDACljC8rAE1t5WACyB9ahZHpbA2j/I5WEJrL3JAFgC67BZHpbA2j/KYJUPrONJsH4MrID3hGCBFbCEYIEVu4RggVWgkyZY5QNr/3EGq3xgHT8JgCWwTptglQ+sztMMVvnAau0EwBJYtxsBsATWdjMAlsB6djMAlsB6ngNgCazdCFgCazIClsAai4AlsEbAAgssgSWwwAILLIElsMACCyyBJbDAAgssgSWwwAILLIElsMACCyyBJbDAAgssgSWwwAILLIElsMACCyyBJbDAAgssgSWwwAILLIElsMACCyyBJbDAAgssgSWwwAILLIElsMACCyyBVbz9a3vd9aKTSjez112t3ocFVmt2vbuO2ql0J1vrXXWn92GB9eJl7q5XC6l093J3fQ9WBbBe5+56Ux7W6tw3BQsssMACCyywwAILLLDAAgsssMACCyywwAILLLDAAgsssMACCyywwAILLLDAAgsssMACCyyw3kbAAgusod6GBRZYYIEFFlhggQUWWGCBBRZYYIEFFlhggQUWWGCBBRZYYIEFFlhggQUWWGCBBRZYYIEFFlhggQUWWGCBBRZYYIEFFlhggQUWWGCBBRZYYIEFFlhggQUWWGCBBRZYYIEFFlhggQUWWGCBBRZYYIEFFlhggQUWWGCBBRZYYIEFFlhggQUWWGCBBRZYYIEFFlhggQUWWGCBBRZYYIEFFlhggQUWWGCBBRZY+8sRsMAC6z5YYIEFFlhggQUWWGCBBRZYYIEFFlhggQUWWH+tlQhYYIE11qOwwAILLLDAAgsssMACCyywwAILLLDAAgsssMACCyywwAILLLDAAgsssMACCyywwAILLLDAAgsssMACCyywwAILLLDAAgsssMACCyywwAILLLDAAgsssMACCyywwAILLLDAAgsssMACCyywwAILLLDAAgsssMACCyywwAILLLDAAgsssMACCyywwAILLLDAAgsssMACCyywwAILLLBe5u56VR7WvXzlsJ6DVbjWu1fd9aydSnfycrKrllLpOptgFa7TXuiudieV7tb7a101U/5ROAJLfzmwBBZYYIElsAQWWGA1wIoIrBGwBNbVJLAEFlhggQXWJlgBqb0IVkBqfQArII03wApIS3NgqXwPJzJYKt/0R7BUvtsvM1gq3t6rDJaKd7x4EywVb28xZ7BUurXZDJbKu3qVwYqIK7Ai4gqsHoqrPApWQFzldbAC4irvgvXb6e5EvkBHYOm3XQ3mC9ScBkvlXeXXe2CpvKu57ztgqbir/Ok4gaXirj6fJrBU3NXHO/tgqbyrgYUEVkhcgaUKXIGVuLoR4AqsxFU7gRUWV2CpAldgcQWWLsMVWLq9E+AKLK4+BLgCqwfjCiyuhgJcgRWV8wosrsCqITsIFldv7wS4AourpY0Elsq72k81wpLzCiyuwFJFrsDiCixV4wos7wfBUgWuwOIKLFXgCiyuwFIFrsDiCixV4AosroYDXIEVkfMKLK4+/4YrsHT9oq5Wf8MVWFx9uaCr6bMElipyBRZXYKkCV2Bx1UlgqbSrkRBXYHF1KTsIlvMKLHUiXIGl8ycBrsCqJK7A4gosVeIKLK7AUud8srwrsHS+VdwVWOrU4gos5xVYOo1wBRZXKwGuwKojrsDiCix1Tsq7AkutG6MXdLX9K1dgYXU624x3VTWszuWXCrS/cOvHFtq/1UZXtX/VrR+befifWn9v73xg8GO+WKMBrnoK1qeDS+88XbRrJ8/uv5r4sVfzv9Hi825anpr/RbMTPza4++8+fPr06ct6F89CgKsgWPV3J12s9wNfmrnu4l2B1XXnO3OZq8KB1Xm0krkqHVidw1GuigdW51GDqwKBxVVAYHEVEFhcBQQWV1GBxVV8YJ1wFRBYpytcFQgsrgICi6uYwOIqPrBOx7gqEVhcxQdWP7g67AFXYHEVEFhcBQQWVwGBxVVAYHEVEFhcBQQWVwGBxVVgYHEVH1gnXAUEFlcBgcVVQGBxFRBYXAUEFldBgdXhKiKwuAoILK4iAqtz0uCqRGBxFR9YXAUEVqcPXDUe9ZorsPpiB3vOFVj94Gpku9dcgdU57ANX0z3gCqyA67dzBRZXAYHFVUBgcRUSWFyFBBZXIYHFVUhgcRUSWFyFBBZXIYEV4sr3g2BxFRlYZ9tclQ+ss9XPXBUPrLN7XJUPrH2uAgKrH1x9nu4tV2D1xw4O39vvMRxg7d8b5qp4YG0scQVW+W7cGOIKrOLd/PKRqwpgiSuwuKodlrgCiyuw9PneWQKrfFztJ7C+1ewgWFyBpbdLZwms8nG1kfq14SyuAmpkXVHD/ewqbWVdTSvb+6mP+5R1FTVfnae+bjDr8ns7uNRK/d27Jy+vuCcfe/FAWRm8/+7ps6f/7N3j/3Sw2X3Pl//bd7P/aPndnfNW6vdaX6+6H3Z7jtXK45O1mbP06zr/Qxs/1l74RxtJl9GtXlvj0afjnVR9mukxWDvnZ0lgFW7u/l4SWMVdHb1IAqu8q1YSWMVdHXAFVoCr+3YQrAhX/5cEVuluLn9NAqu8q2tJYFXhSmBNHSeBVd7VXhJYVbgSWLNcBQTWq7UksCpwJbC4AqseVwJrgquAwBq8mwRWBa4EFldgVeBKYHEFVgWuBBZXYFXgSmBxBVYFrgQWV2DV7UpgTXAFVoSrB0lgcRUQWBW4ElhcgVWBK4HFFVgVuBJYXIFVpSuBNbuWBJbrfgQEVgWuBBZXYNXjSmDdnOcKrABX3x0ngVWBK4HFFVjVuBJYc8+5Asv9vEICK8DV1ySwSneTq4DAmtu0g2AFuDp4kQQWVwGBVcX96AVW8x1X5QOrMTCTVDiwhu+fdzysat/4sDL2Y42Rv1pj7D9tTf6zL5/+3uC784sdV5IkSZIkSZIkSZIkSZIkSZIkSZIkSZIkSZIk6W8j9jydaWM3vwAAAABJRU5ErkJggg==;labelPosition=center;align=center;" vertex="1" parent="1">
                    <mxGeometry x="580" y="680" width="80" height="80" as="geometry"/>
                </mxCell>
                <mxCell id="338" value="Twitch Website" style="shape=image;verticalLabelPosition=top;labelBackgroundColor=default;verticalAlign=bottom;aspect=fixed;imageAspect=0;image=data:image/png,iVBORw0KGgoAAAANSUhEUgAAAlgAAAJYCAMAAACJuGjuAAAA+VBMVEX////x7/a6rdOPebd3XKhvUqJyVqR0WKV1WaZ5Xqno4/CSfLlpS59lRpyAZq329fmYg7zLwN35+PuWgbvh2+y/stZlR5z6+vzm4e/BtddnSJ2Xgrz7+/yZhL3Fudqahr78+/2ciL/q5vHIvdyei8Hr5/J6X6rJvtzs6fN8Yar9/P2ikMN9Y6zMwt6Nd7aNdrW4qtH49/rt6vTu6/TPxuD9/f6jkcTOxN+lksXw7fXSyeKol8eBaK7Uy+P+/v6vnsy0pc+dicDz8feCaa6Uf7qEa6+Vf7pxVKOrmsny7/aKcrRtUKKHb7JzVqWFbbD+/f7c1eny8Pfz8PdZOEv6AAAKhElEQVR4Ae3dhV6by77H4SkEzxCkiq1QwWV1UbQldRfouf97Odv3cslm/pBJn+8lJM9nftH3TZIkSZIkSZIkSZIkSZIkSZIkSZIkSZIkSZIk/eWuDQw2hrpoeCS20cZYSBq8VFfjE838TaTJy3TVmsoCq3zTAeeVwJqZzeUTWNdHcvkE1o2buXgC61bEEgqs26O5fALrzlwunsC6NZ/LJ7BuN7LAqmMJBdbCYi6fwBqPWEKBtRSwhAJr4bsssKKWUGBZQlUAq72cBVb57o5lgVW+e5YQrLglFFiWUBXAutfMAqt47ftZYJXvwUoWWOVbtYRgxS2hwLKEqgDW6lwWWJZQdcBaW88CK+oaMwLLEqoCWA8sIViWUDGwLKEqgGUJwbKEqgCWJQTLEqpGWJYQLEuoamBZQrAsoaqBtbGZBVb51raywCrf9kWXcH1nVz3R8BXCCljC72ceqhdqzV4hrIAlHEjqiTamegnWdrNPYKndS7DamxkssOKXECywIpYQLLAClhAssAL+TwgWWAFLCBZYAZ+OggVWwBKCBVbAEoIFVsB7QrDACljCAFgCa7oJFljRSwgWWAFLCBZYAUsIFlgBSwgWWAFLCBZYAUsIFlgB/6wHC6yA344GwBJY202wwAr5xUx5WALrhy2wwIpcQrDAClhCsMAKWEKwwApYQrDACljC8rAE1t5WACyB9ahZHpbA2j/I5WEJrL3JAFgC67BZHpbA2j/KYJUPrONJsH4MrID3hGCBFbCEYIEVu4RggVWgkyZY5QNr/3EGq3xgHT8JgCWwTptglQ+sztMMVvnAau0EwBJYtxsBsATWdjMAlsB6djMAlsB6ngNgCazdCFgCazIClsAai4AlsEbAAgssgSWwwAILLIElsMACCyyBJbDAAgssgSWwwAILLIElsMACCyyBJbDAAgssgSWwwAILLIElsMACCyyBJbDAAgssgSWwwAILLIElsMACCyyBJbDAAgssgSWwwAILLIElsMACCyyBVbz9a3vd9aKTSjez112t3ocFVmt2vbuO2ql0J1vrXXWn92GB9eJl7q5XC6l093J3fQ9WBbBe5+56Ux7W6tw3BQsssMACCyywwAILLLDAAgsssMACCyywwAILLLDAAgsssMACCyywwAILLLDAAgsssMACCyyw3kbAAgusod6GBRZYYIEFFlhggQUWWGCBBRZYYIEFFlhggQUWWGCBBRZYYIEFFlhggQUWWGCBBRZYYIEFFlhggQUWWGCBBRZYYIEFFlhggQUWWGCBBRZYYIEFFlhggQUWWGCBBRZYYIEFFlhggQUWWGCBBRZYYIEFFlhggQUWWGCBBRZYYIEFFlhggQUWWGCBBRZYYIEFFlhggQUWWGCBBRZYYIEFFlhggQUWWGCBBRZY+8sRsMAC6z5YYIEFFlhggQUWWGCBBRZYYIEFFlhggQUWWH+tlQhYYIE11qOwwAILLLDAAgsssMACCyywwAILLLDAAgsssMACCyywwAILLLDAAgsssMACCyywwAILLLDAAgsssMACCyywwAILLLDAAgsssMACCyywwAILLLDAAgsssMACCyywwAILLLDAAgsssMACCyywwAILLLDAAgsssMACCyywwAILLLDAAgsssMACCyywwAILLLDAAgsssMACCyywwAILLLBe5u56VR7WvXzlsJ6DVbjWu1fd9aydSnfycrKrllLpOptgFa7TXuiudieV7tb7a101U/5ROAJLfzmwBBZYYIElsAQWWGA1wIoIrBGwBNbVJLAEFlhggQXWJlgBqb0IVkBqfQArII03wApIS3NgqXwPJzJYKt/0R7BUvtsvM1gq3t6rDJaKd7x4EywVb28xZ7BUurXZDJbKu3qVwYqIK7Ai4gqsHoqrPApWQFzldbAC4irvgvXb6e5EvkBHYOm3XQ3mC9ScBkvlXeXXe2CpvKu57ztgqbir/Ok4gaXirj6fJrBU3NXHO/tgqbyrgYUEVkhcgaUKXIGVuLoR4AqsxFU7gRUWV2CpAldgcQWWLsMVWLq9E+AKLK4+BLgCqwfjCiyuhgJcgRWV8wosrsCqITsIFldv7wS4AourpY0Elsq72k81wpLzCiyuwFJFrsDiCixV4wos7wfBUgWuwOIKLFXgCiyuwFIFrsDiCixV4AosroYDXIEVkfMKLK4+/4YrsHT9oq5Wf8MVWFx9uaCr6bMElipyBRZXYKkCV2Bx1UlgqbSrkRBXYHF1KTsIlvMKLHUiXIGl8ycBrsCqJK7A4gosVeIKLK7AUud8srwrsHS+VdwVWOrU4gos5xVYOo1wBRZXKwGuwKojrsDiCix1Tsq7AkutG6MXdLX9K1dgYXU624x3VTWszuWXCrS/cOvHFtq/1UZXtX/VrR+befifWn9v73xg8GO+WKMBrnoK1qeDS+88XbRrJ8/uv5r4sVfzv9Hi825anpr/RbMTPza4++8+fPr06ct6F89CgKsgWPV3J12s9wNfmrnu4l2B1XXnO3OZq8KB1Xm0krkqHVidw1GuigdW51GDqwKBxVVAYHEVEFhcBQQWV1GBxVV8YJ1wFRBYpytcFQgsrgICi6uYwOIqPrBOx7gqEVhcxQdWP7g67AFXYHEVEFhcBQQWVwGBxVVAYHEVEFhcBQQWVwGBxVVgYHEVH1gnXAUEFlcBgcVVQGBxFRBYXAUEFldBgdXhKiKwuAoILK4iAqtz0uCqRGBxFR9YXAUEVqcPXDUe9ZorsPpiB3vOFVj94Gpku9dcgdU57ANX0z3gCqyA67dzBRZXAYHFVUBgcRUSWFyFBBZXIYHFVUhgcRUSWFyFBBZXIYEV4sr3g2BxFRlYZ9tclQ+ss9XPXBUPrLN7XJUPrH2uAgKrH1x9nu4tV2D1xw4O39vvMRxg7d8b5qp4YG0scQVW+W7cGOIKrOLd/PKRqwpgiSuwuKodlrgCiyuw9PneWQKrfFztJ7C+1ewgWFyBpbdLZwms8nG1kfq14SyuAmpkXVHD/ewqbWVdTSvb+6mP+5R1FTVfnae+bjDr8ns7uNRK/d27Jy+vuCcfe/FAWRm8/+7ps6f/7N3j/3Sw2X3Pl//bd7P/aPndnfNW6vdaX6+6H3Z7jtXK45O1mbP06zr/Qxs/1l74RxtJl9GtXlvj0afjnVR9mukxWDvnZ0lgFW7u/l4SWMVdHb1IAqu8q1YSWMVdHXAFVoCr+3YQrAhX/5cEVuluLn9NAqu8q2tJYFXhSmBNHSeBVd7VXhJYVbgSWLNcBQTWq7UksCpwJbC4AqseVwJrgquAwBq8mwRWBa4EFldgVeBKYHEFVgWuBBZXYFXgSmBxBVYFrgQWV2DV7UpgTXAFVoSrB0lgcRUQWBW4ElhcgVWBK4HFFVgVuBJYXIFVpSuBNbuWBJbrfgQEVgWuBBZXYNXjSmDdnOcKrABX3x0ngVWBK4HFFVjVuBJYc8+5Asv9vEICK8DV1ySwSneTq4DAmtu0g2AFuDp4kQQWVwGBVcX96AVW8x1X5QOrMTCTVDiwhu+fdzysat/4sDL2Y42Rv1pj7D9tTf6zL5/+3uC784sdV5IkSZIkSZIkSZIkSZIkSZIkSZIkSZIkSZIk6W8j9jydaWM3vwAAAABJRU5ErkJggg==;labelPosition=center;align=center;" vertex="1" parent="1">
                    <mxGeometry x="740" y="680" width="80" height="80" as="geometry"/>
                </mxCell>
                <mxCell id="339" style="edgeStyle=none;html=1;entryX=0.5;entryY=1;entryDx=0;entryDy=0;" edge="1" parent="1" source="300" target="337">
                    <mxGeometry relative="1" as="geometry">
                        <Array as="points">
                            <mxPoint x="620" y="1080"/>
                        </Array>
                    </mxGeometry>
                </mxCell>
                <mxCell id="340" style="edgeStyle=none;html=1;entryX=0.5;entryY=1;entryDx=0;entryDy=0;" edge="1" parent="1" source="303" target="338">
                    <mxGeometry relative="1" as="geometry">
                        <Array as="points">
                            <mxPoint x="780" y="1020"/>
                        </Array>
                    </mxGeometry>
                </mxCell>
            </root>
        </mxGraphModel>
    </diagram>
</mxfile>